<svg width="43" height="30" viewBox="0 0 43 30" fill="none" xmlns="http://www.w3.org/2000/svg">
<path fill-rule="evenodd" clip-rule="evenodd" d="M30.9764 0C27.2142 0 23.8888 1.87031 21.8785 4.73098L22.3304 2.1823C22.3568 2.03351 22.2912 1.82391 22.184 1.71752L22.1712 1.70472C22.0648 1.59752 21.8537 1.50953 21.7017 1.50953H17.7602C17.6091 1.50953 17.3979 1.59752 17.2907 1.70472L17.2779 1.71752C17.1715 1.82391 17.0251 2.0207 16.9539 2.1543L16.5715 2.87186C16.4739 3.03985 16.3523 3.11425 16.2419 3.11425C16.0555 3.11425 15.8491 2.86546 15.8491 2.86546L15.7819 2.79107C15.258 2.2239 13.8668 1.10955 11.0246 1.10955C4.24648 1.10955 0.31546 7.36605 0.31546 13.101C0.31546 18.1143 3.60491 21.9654 8.17669 21.9654C10.8574 21.9654 12.3229 20.7254 12.8269 20.195C13.1829 19.8079 13.4372 19.9743 13.3709 20.2918C12.7165 23.6685 10.9374 25.1732 8.21749 25.1732C6.73036 25.1732 5.9672 24.8284 5.67201 24.1389C5.41042 23.6149 5.16963 23.5693 4.91765 23.5693H0.664244C-0.0877207 23.5693 0.00347503 24.2309 0.00347503 24.2309C0.163468 27.6947 3.52091 29.9866 8.21749 29.9866C14.234 29.9866 17.9634 26.7779 19.2474 19.5583L20.2377 13.9713C21.4993 18.7215 25.8287 22.2221 30.9764 22.2221C37.1121 22.2221 42.0879 17.2472 42.0879 11.1107C42.0879 4.97496 37.1121 0 30.9764 0ZM9.62062 17.152C7.01355 17.152 6.01119 15.3865 6.01119 13.101C6.01119 9.37076 7.85591 5.92211 11.5861 5.92211C14.1532 5.92211 15.1964 7.48604 15.1964 9.73234C15.1964 13.4218 13.4308 17.152 9.62062 17.152ZM38.4265 10.8107C38.3945 10.9851 38.3681 11.1595 38.3417 11.3339C38.3249 11.4491 38.3073 11.5635 38.2889 11.6778C38.1969 12.2458 37.8737 12.5378 37.2985 12.573C37.2617 12.5746 37.2249 12.5754 37.1873 12.5754H37.1353L37.0873 12.5746H32.6492C32.186 12.585 32.0716 13.1778 32.0668 13.2018L32.0492 13.2594L32.0028 13.5202C31.9588 13.7721 31.914 14.0249 31.87 14.2745L31.71 15.1969H31.7108C31.5732 15.992 31.4356 16.7872 31.2924 17.5824C31.1868 18.1735 30.8532 18.4511 30.2437 18.4567L30.2093 18.4575C30.0621 18.4583 29.9141 18.4599 29.7661 18.4599C29.5197 18.4599 29.3173 18.4559 29.1301 18.4463C28.8045 18.4287 28.6285 18.2903 28.5381 18.1775C28.4469 18.0631 28.3494 17.8576 28.4045 17.5272C28.4645 17.176 28.5269 16.8248 28.5893 16.4744L28.6957 15.8712L28.7861 15.3561H28.7853L29.0557 13.8089L29.1909 13.0314C29.1941 12.9458 29.1885 12.7626 29.0941 12.661C29.0429 12.605 28.9653 12.577 28.8621 12.5746H24.4591L24.4111 12.5754H24.3591C24.3287 12.5754 24.2983 12.5754 24.2687 12.5738C23.98 12.5594 23.7744 12.4746 23.6416 12.317C23.5096 12.1602 23.4624 11.9474 23.4968 11.6658C23.5488 11.2419 23.6072 10.8555 23.6744 10.4867C23.7768 9.92193 24.1224 9.64674 24.7311 9.64514C25.2535 9.64354 25.7751 9.64274 26.2966 9.64274L27.079 9.64355H27.8598H29.2741C29.7693 9.64355 29.8829 9.05317 29.8877 9.02837L29.9517 8.67159L30.0029 8.3836L30.1965 7.28925C30.3565 6.38689 30.5164 5.48454 30.6828 4.58298C30.7796 4.05101 31.1044 3.77582 31.6468 3.76622C31.8372 3.76382 32.0268 3.76142 32.2164 3.76142C32.4164 3.76142 32.6172 3.76382 32.8179 3.76702C33.0627 3.77262 33.2603 3.85341 33.3915 4.00061C33.5163 4.1406 33.5707 4.33259 33.5491 4.55578C33.5139 4.92136 33.4475 5.28695 33.3835 5.63973L33.3307 5.93171C33.1563 6.93567 32.9795 7.94042 32.8027 8.94598L32.7787 9.08837C32.7643 9.17316 32.7507 9.42035 32.8595 9.54915C32.9131 9.61314 32.9963 9.64355 33.1147 9.64355H37.4529C37.7465 9.64355 38.1097 9.67475 38.3113 9.91553C38.5129 10.1571 38.4785 10.5211 38.4265 10.8107Z" fill="white"/>
</svg>
